Coordinates
version=1
nRows=10
nColumns=63
inDegrees=yes

Units are S.I. units (second, meters, Newtons, ...)
If the header above contains a line with 'inDegrees', this indicates whether rotational values are in degrees (yes) or radians (no).

endheader
time	pelvis_tilt	pelvis_list	pelvis_rotation	pelvis_tx	pelvis_ty	pelvis_tz	hip_flexion_r	hip_adduction_r	hip_rotation_r	knee_angle_r	knee_angle_r_beta	ankle_angle_r	subtalar_angle_r	mtp_angle_r	hip_flexion_l	hip_adduction_l	hip_rotation_l	knee_angle_l	knee_angle_l_beta	ankle_angle_l	subtalar_angle_l	mtp_angle_l	L5_S1_Flex_Ext	L5_S1_Lat_Bending	L5_S1_axial_rotation	L4_L5_Flex_Ext	L4_L5_Lat_Bending	L4_L5_axial_rotation	L3_L4_Flex_Ext	L3_L4_Lat_Bending	L3_L4_axial_rotation	L2_L3_Flex_Ext	L2_L3_Lat_Bending	L2_L3_axial_rotation	L1_L2_Flex_Ext	L1_L2_Lat_Bending	L1_L2_axial_rotation	L1_T12_Flex_Ext	L1_T12_Lat_Bending	L1_T12_axial_rotation	Abs_r3	Abs_r2	Abs_r1	Abs_t1	Abs_t2	neck_flexion	neck_bending	neck_rotation	arm_flex_r	arm_add_r	arm_rot_r	elbow_flex_r	pro_sup_r	wrist_flex_r	wrist_dev_r	arm_flex_l	arm_add_l	arm_rot_l	elbow_flex_l	pro_sup_l	wrist_flex_l	wrist_dev_l
      0.74137931	     -6.09318156	     -4.52003424	    101.54426162	      0.22031470	      0.71088423	      0.73115428	      5.16657535	     -9.49255017	    -15.33648733	      7.43958389	      0.12984523	     15.27392719	      3.08241256	      0.00000000	      8.58222314	      5.80598526	     -1.14488181	     11.66006427	      0.20350651	      6.41574469	     -6.39722340	      0.00000000	      0.17018773	     -0.82257684	     -1.21207870	      0.31605564	     -1.09402720	     -1.28783362	      0.27960142	     -2.00001333	     -1.28783362	      0.19450756	     -2.00001333	     -1.06056886	      0.15803633	     -1.67739869	     -0.98481394	      0.09724527	     -1.27417152	     -0.90905902	      1.21563395	     -9.30515371	     -6.74121810	      0.00000000	      0.00000000	     27.01748865	      5.41441950	      1.21605226	     10.61497171	     -6.66975808	     56.74150912	     39.27440432	     83.09314609	     10.61516449	     -0.84661332	      6.42761234	    -15.36375471	     48.33451115	     55.11113955	     72.48195544	     10.62688380	     10.10006049
      0.75862069	     -6.08920615	     -4.50061470	    101.88719167	      0.21984860	      0.71082237	      0.73116742	      5.09951910	     -9.51398963	    -15.59295817	      7.51847598	      0.13122216	     15.13673522	      2.81468507	      0.00000000	      8.74426741	      5.85409716	     -0.80169748	     12.03682095	      0.21008216	      6.54317393	     -6.61920959	      0.00000000	      0.16895044	     -0.82352339	     -1.30522589	      0.31375787	     -1.09528611	     -1.38680251	      0.27756868	     -2.00231478	     -1.38680251	      0.19309346	     -2.00231478	     -1.14207265	      0.15688738	     -1.67932890	     -1.06049604	      0.09653828	     -1.27563774	     -0.97891942	      1.20679611	     -9.31586133	     -7.25927484	      0.00000000	      0.00000000	     27.01716953	      5.57190743	      1.36005106	     10.93565017	     -6.63328057	     57.76610203	     39.08662622	     83.50604019	     10.56035352	     -1.10748169	      6.16836964	    -15.36952093	     47.80514482	     55.24063863	     72.77093184	     10.73848108	     10.27062676
      0.77586207	     -6.04501071	     -4.44359575	    102.51103580	      0.21901783	      0.71072502	      0.73115862	      4.91324105	     -9.52879133	    -16.40385755	      7.61966502	      0.13298824	     15.16569266	      3.00577811	      0.00000000	      8.82002522	      5.87685510	     -0.32287801	     12.29482178	      0.21458512	      6.88568931	     -6.37331282	      0.00000000	      0.16333703	     -0.82025467	     -1.45602327	      0.30333320	     -1.09093871	     -1.54702472	      0.26834641	     -1.99436720	     -1.54702472	      0.18667790	     -1.99436720	     -1.27402036	      0.15167477	     -1.67266332	     -1.18301890	      0.09333078	     -1.27057448	     -1.09201745	      1.16670010	     -9.27888487	     -8.09796460	      0.00000000	      0.00000000	     26.98393169	      5.69032911	      1.47404231	     11.01080082	     -6.49146257	     58.13051570	     38.87769829	     82.76825455	     11.39745861	     -0.64853631	      5.72439360	    -15.40878988	     47.08644391	     55.63836461	     72.89621988	     10.35632215	     10.72424097
      0.79310345	     -6.02101476	     -4.33445420	    102.91014984	      0.21837142	      0.71065068	      0.73104304	      4.72644009	     -9.50637358	    -16.52093642	      7.72132864	      0.13476261	     15.18858921	      2.64212095	      0.00000000	      8.66891416	      5.85460480	     -0.30782791	     12.21085948	      0.21311970	      7.29626467	     -5.58156347	      0.00000000	      0.15486195	     -0.81748831	     -1.59456018	      0.28759414	     -1.08725945	     -1.69422019	      0.25442270	     -1.98764107	     -1.69422019	      0.17699173	     -1.98764107	     -1.39524016	      0.14380481	     -1.66702216	     -1.29558015	      0.08848812	     -1.26628939	     -1.19592014	      1.10616345	     -9.24759122	     -8.86846536	      0.00000000	      0.00000000	     26.93335871	      5.93740456	      1.75033198	     11.17364930	     -6.30380877	     58.91839727	     38.53983511	     80.83077949	     12.34919499	     -0.14637309	      5.08347159	    -15.41876732	     45.95073121	     56.09321243	     73.01623904	     10.13169972	     11.22829866
      0.81034483	     -6.01201846	     -4.20401112	    103.25574628	      0.21778396	      0.71058762	      0.73093895	      4.51243332	     -9.48995263	    -16.69199726	      7.79417816	      0.13603407	     15.31399488	      2.48535623	      0.00000000	      8.36148034	      5.76966768	     -0.88150853	     11.86693610	      0.20711711	      7.78981026	     -3.85732003	      0.00000000	      0.14662244	     -0.81616276	     -1.74549774	      0.27229253	     -1.08549648	     -1.85459135	      0.24088600	     -1.98441814	     -1.85459135	      0.16757478	     -1.98441814	     -1.52731052	      0.13615360	     -1.66431911	     -1.41821691	      0.08378006	     -1.26423612	     -1.30912330	      1.04730941	     -9.23259641	     -9.70793477	      0.00000000	      0.00000000	     26.82662582	      6.22313196	      2.07982984	     11.44569989	     -6.10740969	     60.23076971	     38.13968610	     77.27788684	     13.07096034	      0.47460718	      4.30249545	    -15.39737670	     44.47100715	     56.54052781	     73.94076285	     10.09934669	     11.41915698
      0.82758621	     -5.95036324	     -4.05120966	    103.78291291	      0.21689282	      0.71051185	      0.73094724	      4.24166768	     -9.50518820	    -18.02080582	      7.89556428	      0.13780359	     15.78938056	      3.79333313	      0.00000000	      8.00016534	      5.73096298	     -0.65244202	     11.42968245	      0.19948559	      8.03035851	     -3.13364941	      0.00000000	      0.13429293	     -0.80775511	     -1.94467172	      0.24939541	     -1.07431430	     -2.06621370	      0.22062986	     -1.96397577	     -2.06621370	      0.15348339	     -1.96397577	     -1.70158775	      0.12470442	     -1.64717422	     -1.58004577	      0.07673498	     -1.25121267	     -1.45850379	      0.95924099	     -9.13748735	    -10.81568070	      0.00000000	      0.00000000	     26.71096091	      6.56986924	      2.55222290	     11.89760290	     -5.98560304	     62.25092061	     37.79517464	     71.76385624	     13.49713980	      1.38189120	      3.54123111	    -15.41673480	     43.30004892	     57.12107972	     72.94619634	      9.29657831	     12.17535235
      0.84482759	     -5.91740713	     -3.93224984	    104.27283776	      0.21615807	      0.71046053	      0.73081078	      4.00118938	     -9.50061187	    -18.82536274	      7.95094943	      0.13877025	     16.17545035	      4.39127722	      0.00000000	      7.65143240	      5.69366799	     -0.51225901	     10.98589896	      0.19174011	      8.10145399	     -2.29748598	      0.00000000	      0.12656316	     -0.80621128	     -2.11382760	      0.23504045	     -1.07226100	     -2.24594182	      0.20793062	     -1.96022210	     -2.24594182	      0.14464904	     -1.96022210	     -1.84959915	      0.11752655	     -1.64402604	     -1.71748492	      0.07231819	     -1.24882127	     -1.58537070	      0.90402801	     -9.12002323	    -11.75647494	      0.00000000	      0.00000000	     26.60920899	      6.78596666	      2.72373811	     12.09067148	     -5.83422518	     63.32593314	     37.54496776	     67.87508449	     13.66518278	      1.94492283	      2.84390103	    -15.37900703	     42.08197031	     57.54978577	     73.12947552	      9.01367171	     12.56532251
      0.86206897	     -5.90235761	     -3.86684404	    104.68686160	      0.21558093	      0.71044427	      0.73065649	      3.86872274	     -9.49763612	    -19.23990488	      8.02264582	      0.14002158	     16.42534217	      4.41098255	      0.00000000	      7.38209499	      5.74336385	      0.23794422	     10.63319715	      0.18558430	      7.80050309	     -2.64607475	      0.00000000	      0.12047871	     -0.80645442	     -2.21445635	      0.22374102	     -1.07258438	     -2.35285987	      0.19793448	     -1.96081327	     -2.35285987	      0.13769512	     -1.96081327	     -1.93764930	      0.11187653	     -1.64452185	     -1.79924578	      0.06884154	     -1.24919789	     -1.66084226	      0.86056739	     -9.12277366	    -12.31614186	      0.00000000	      0.00000000	     26.55040784	      6.92072416	      2.77365223	     12.08904506	     -5.78652756	     63.75103601	     37.52591648	     64.64570437	     13.50888057	      2.59888119	      2.49583250	    -15.34467653	     41.40694940	     57.65586401	     74.23940628	      9.37278253	     12.15736979
      0.87931034	     -5.89753102	     -3.83705591	    104.92601699	      0.21518076	      0.71046937	      0.73014622	      3.78540413	     -9.49270781	    -19.38466761	      8.07954771	      0.14101471	     16.58784449	      4.21194932	      0.00000000	      7.15312943	      5.74017521	      0.35977462	     10.37593545	      0.18109424	      7.54086083	     -2.39748736	      0.00000000	      0.12083130	     -0.80698521	     -2.23140443	      0.22439580	     -1.07329033	     -2.37086721	      0.19851374	     -1.96210384	     -2.37086721	      0.13809809	     -1.96210384	     -1.95247888	      0.11220394	     -1.64560424	     -1.81301610	      0.06904300	     -1.25002009	     -1.67355333	      0.86308586	     -9.12877810	    -12.41040204	      0.00000000	      0.00000000	     26.54704675	      6.91579501	      2.67992413	     11.86516993	     -5.86753224	     63.41153714	     37.65464891	     63.64851975	     13.27796465	      2.61723462	      2.43714751	    -15.33709193	     41.58027780	     57.70075444	     73.40668587	      9.11141658	     12.32462498
      0.89655172	     -5.89488430	     -3.85162558	    105.08673773	      0.21496102	      0.71050670	      0.72953959	      3.78555783	     -9.50496762	    -19.52903515	      8.18821906	      0.14291138	     16.76618211	      4.16484139	      0.00000000	      6.97838229	      5.75179773	      0.55917528	     10.17775306	      0.17763530	      7.12853336	     -2.49550679	      0.00000000	      0.12513778	     -0.80865750	     -2.19667787	      0.23239338	     -1.07551448	     -2.33397024	      0.20558887	     -1.96616985	     -2.33397024	      0.14301997	     -1.96616985	     -1.92209314	      0.11620295	     -1.64901437	     -1.78480077	      0.07150373	     -1.25261047	     -1.64750840	      0.89384668	     -9.14769538	    -12.21726331	      0.00000000	      0.00000000	     26.58589569	      6.76673507	      2.38104497	     11.52865503	     -6.04776895	     62.86555257	     37.96368470	     62.67173767	     12.82565934	      2.65582746	      2.62676738	    -15.35602650	     42.17621734	     57.65055217	     72.85847983	      8.95590529	     12.52800988
